<svg xmlns="http://www.w3.org/2000/svg" viewBox="0 0 800 1000" role="img" aria-label="Hero protection shield">
<defs>
<linearGradient id="hb" x1="0" y1="0" x2="1" y2="1"><stop offset="0" stop-color="#0f3a2a"/><stop offset="1" stop-color="#0f172a"/></linearGradient>
<radialGradient id="hg" cx=".5" cy=".4" r=".6"><stop offset="0" stop-color="#22c55e" stop-opacity=".45"/><stop offset="1" stop-color="#22c55e" stop-opacity="0"/></radialGradient>
<pattern id="hd" width="28" height="28" patternUnits="userSpaceOnUse"><circle cx="2" cy="2" r="1.5" fill="#ffffff" fill-opacity=".06"/></pattern>
</defs>
<rect width="800" height="1000" fill="url(#hb)"/><rect width="800" height="1000" fill="url(#hd)"/><rect width="800" height="1000" fill="url(#hg)"/>
<circle cx="400" cy="470" r="250" fill="#16A34A" fill-opacity=".15"/>
<circle cx="400" cy="470" r="250" fill="none" stroke="#22c55e" stroke-opacity=".25" stroke-width="2"/>
<g transform="translate(400 480) scale(30) translate(-12 -12)">
  <path d="M12 2 4 5v6c0 5 3.4 9.3 8 11 4.6-1.7 8-6 8-11V5l-8-3Z" fill="#ffffff" fill-opacity=".96"/>
  <path d="m8.4 12 2.6 2.6 4.6-5.2" fill="none" stroke="#16A34A" stroke-width="1.7" stroke-linecap="round" stroke-linejoin="round"/>
</g>
<g fill="#22c55e"><circle cx="150" cy="250" r="6"/><circle cx="650" cy="300" r="8"/><circle cx="120" cy="700" r="7"/><circle cx="680" cy="720" r="6"/><circle cx="400" cy="160" r="5"/></g>
<text x="400" y="860" text-anchor="middle" font-family="Sora, sans-serif" font-size="46" font-weight="800" fill="#ffffff" fill-opacity=".9">Protected.</text>
<text x="400" y="905" text-anchor="middle" font-family="Plus Jakarta Sans, sans-serif" font-size="24" fill="#86efac">Licensed &amp; Insured</text>
</svg>
